<svg xmlns="http://www.w3.org/2000/svg" enable-background="new 0 0 32 32" viewBox="0 0 32 32" id="hubspot">
  <path fill="#E3F8FA" d="M26,32H6c-3.314,0-6-2.686-6-6V6c0-3.314,2.686-6,6-6h20c3.314,0,6,2.686,6,6v20C32,29.314,29.314,32,26,32z"></path>
  <path fill="#26C6DA" d="M23.167,17.572c0-2.037-1.481-3.725-3.422-4.022v-1.925c0.543-0.231,0.876-0.744,0.876-1.341c0-0.815-0.649-1.497-1.459-1.497c-0.81,0-1.45,0.681-1.45,1.497c0,0.597,0.332,1.109,0.876,1.341v1.913c-0.472,0.065-0.919,0.209-1.326,0.425c-0.857-0.653-3.648-2.678-5.244-3.9c0.037-0.137,0.062-0.281,0.062-0.431c0-0.9-0.73-1.631-1.627-1.631C9.559,8,8.833,8.731,8.833,9.631c0,0.903,0.727,1.635,1.621,1.635c0.304,0,0.587-0.091,0.832-0.237l5.067,3.585l-0.001-0.001c-0.78,0.741-1.266,1.791-1.266,2.956c0,0.915,0.301,1.759,0.807,2.437l-1.537,1.556c-0.136-0.05-0.283-0.078-0.434-0.078c-0.335,0-0.649,0.131-0.885,0.369c-0.236,0.237-0.366,0.556-0.366,0.894c0,0.338,0.13,0.653,0.366,0.891C13.272,23.875,13.588,24,13.921,24c0.335,0,0.649-0.122,0.888-0.363c0.236-0.237,0.366-0.556,0.366-0.891c0-0.131-0.019-0.256-0.059-0.378l1.552-1.569c0.683,0.528,1.534,0.841,2.462,0.841C21.363,21.641,23.167,19.819,23.167,17.572z M19.13,19.725c-1.183,0-2.142-0.965-2.142-2.156c0-1.191,0.959-2.156,2.142-2.156s2.142,0.965,2.142,2.156C21.272,18.759,20.313,19.725,19.13,19.725z"></path>
</svg>
